<svg xmlns="http://www.w3.org/2000/svg" width="209.012" height="59.791" viewBox="0 0 209.012 59.791"><defs><style>.a,.b{fill:#00ca88;}.b{font-size:44px;font-family:UrbaneRounded-DemiBold, Urbane Rounded;font-weight:300;}</style></defs><g transform="translate(-211 220.991)"><g transform="translate(386.335 -223.227) rotate(17)"><path class="a" d="M5.156,10.779a5.006,5.006,0,0,1-.725.053A4.207,4.207,0,0,1,0,6.893a3.643,3.643,0,0,1,.874-2.35L.831,4.459l.278-.173A4.482,4.482,0,0,1,2.826,3.22L5.163,1.77A4.591,4.591,0,0,1,8.862,0a4.781,4.781,0,0,1,2.674.8h.006l.027.022a4.309,4.309,0,0,1,.563.461l2.45,2a3.954,3.954,0,0,1,2.65,3.608A4.194,4.194,0,0,1,12.9,10.831l-.029.059Z" transform="translate(4.086 11.923)"/><path class="a" d="M3.679,7.691a3.572,3.572,0,0,1-.517.037A3,3,0,0,1,0,4.918,2.6,2.6,0,0,1,.624,3.242l-.031-.06.2-.123A3.2,3.2,0,0,1,2.017,2.3L3.683,1.263A3.276,3.276,0,0,1,6.323,0,3.411,3.411,0,0,1,8.231.569h0l.02.016a3.074,3.074,0,0,1,.4.329L10.4,2.344A2.821,2.821,0,0,1,12.3,4.918,2.993,2.993,0,0,1,9.2,7.728l-.02.042Z" transform="translate(25.563 24.398)"/><ellipse class="a" cx="3.868" cy="3.186" rx="3.868" ry="3.186" transform="matrix(0.087, 0.996, -0.996, 0.087, 6.347, 6.821)"/><ellipse class="a" cx="2.76" cy="2.273" rx="2.76" ry="2.273" transform="matrix(0.087, 0.996, -0.996, 0.087, 27.177, 20.758)"/><ellipse class="a" cx="3.868" cy="3.186" rx="3.868" ry="3.186" transform="matrix(-0.326, 0.946, -0.946, -0.326, 26.97, 8.332)"/><ellipse class="a" cx="2.76" cy="2.273" rx="2.76" ry="2.273" transform="matrix(-0.326, 0.946, -0.946, -0.326, 41.891, 21.836)"/><ellipse class="a" cx="4.551" cy="3.186" rx="4.551" ry="3.186" transform="matrix(0.087, 0.996, -0.996, 0.087, 12.181, 0)"/><ellipse class="a" cx="3.247" cy="2.273" rx="3.247" ry="2.273" transform="matrix(0.087, 0.996, -0.996, 0.087, 31.34, 15.891)"/><ellipse class="a" cx="4.551" cy="3.186" rx="4.551" ry="3.186" transform="matrix(-0.07, 0.998, -0.998, -0.07, 20.181, 0.494)"/><ellipse class="a" cx="3.247" cy="2.273" rx="3.247" ry="2.273" transform="matrix(-0.07, 0.998, -0.998, -0.07, 37.048, 16.243)"/></g><text class="b" transform="translate(211 -171.2)"><tspan x="0" y="0">Amigão</tspan></text></g></svg>